<?xml version="1.0" encoding="utf-8"?>
<!-- Svg Vector Icons : http://www.onlinewebfonts.com/icon -->
<!DOCTYPE svg PUBLIC "-//W3C//DTD SVG 1.1//EN" "http://www.w3.org/Graphics/SVG/1.1/DTD/svg11.dtd">
<svg version="1.1" xmlns="http://www.w3.org/2000/svg" xmlns:xlink="http://www.w3.org/1999/xlink" x="0px" y="0px" viewBox="0 0 1000 1000" enable-background="new 0 0 1000 1000" xml:space="preserve">
<metadata> Svg Vector Icons : http://www.onlinewebfonts.com/icon </metadata>
<g><g><path d="M500,10C229.4,10,10,229.4,10,500c0,270.6,219.4,490,490,490c270.6,0,490-219.4,490-490C990,229.4,770.6,10,500,10z M230.5,617.1c-65.3-0.3-118-53.4-117.7-118.7c0.3-65.2,53.5-118,118.7-117.8c65.2,0.3,118,53.4,117.7,118.7C349,564.7,295.8,617.4,230.5,617.1z M498.4,887.2c-65.3-0.3-118-53.4-117.7-118.7c0.3-65.3,53.4-118,118.7-117.8c65.3,0.3,118,53.4,117.7,118.7C616.8,834.7,563.7,887.4,498.4,887.2z M448.3,500c0-28.5,23.2-51.7,51.7-51.7s51.7,23.2,51.7,51.7c0,28.5-23.2,51.7-51.7,51.7S448.3,528.5,448.3,500z M500.6,349.3c-65.3-0.3-118-53.4-117.7-118.7c0.3-65.3,53.4-118,118.7-117.7c65.3,0.3,118,53.4,117.7,118.7C619,296.8,565.9,349.6,500.6,349.3z M768.5,619.3c-65.3-0.3-118-53.4-117.7-118.7c0.3-65.2,53.4-118,118.7-117.7c65.3,0.3,118,53.4,117.8,118.6C886.9,566.9,833.7,619.6,768.5,619.3z"/></g><g></g><g></g><g></g><g></g><g></g><g></g><g></g><g></g><g></g><g></g><g></g><g></g><g></g><g></g><g></g></g>
</svg>